<svg width="16" height="16" viewBox="0 0 16 16" fill="none" xmlns="http://www.w3.org/2000/svg">
<path opacity="0.3" d="M8.66667 2.10669V6.00002H12C11.9733 4.04002 10.54 2.42002 8.66667 2.10669ZM7.33333 2.10669C5.46 2.42002 4.02667 4.04002 4 6.00002H7.33333V2.10669ZM7.33333 7.33336H4V10C4 12.2067 5.79333 14 8 14C10.2067 14 12 12.2067 12 10V7.33336H7.33333Z" fill="white"/>
<path d="M13.3333 5.99998C13.3066 3.07332 10.9333 0.713318 7.99996 0.713318C5.06663 0.713318 2.69329 3.07332 2.66663 5.99998V9.99998C2.66663 12.9467 5.05329 15.3333 7.99996 15.3333C10.9466 15.3333 13.3333 12.9467 13.3333 9.99998V5.99998ZM8.66663 2.10665C10.54 2.41998 11.9733 4.03998 12 5.99998H8.66663V2.10665ZM7.33329 2.10665V5.99998H3.99996C4.02663 4.03998 5.45996 2.41998 7.33329 2.10665ZM12 9.99998C12 12.2067 10.2066 14 7.99996 14C5.79329 14 3.99996 12.2067 3.99996 9.99998V7.33332H12V9.99998Z" fill="white"/>
</svg>
