<svg width="66" height="1140" viewBox="0 0 66 1140" fill="none" xmlns="http://www.w3.org/2000/svg">
<path d="M43.9846 1119.5C42.7346 1119.5 41.5346 1119.3 40.4146 1118.93C40.3146 1118.9 40.2046 1118.88 40.1046 1118.88C39.8446 1118.88 39.5946 1118.98 39.3946 1119.17L37.1946 1121.37C34.3646 1119.93 32.0446 1117.62 30.6046 1114.79L32.8046 1112.58C33.0846 1112.31 33.1646 1111.92 33.0546 1111.57C32.6846 1110.45 32.4846 1109.25 32.4846 1108C32.4846 1107.45 32.0346 1107 31.4846 1107H27.9846C27.4346 1107 26.9846 1107.45 26.9846 1108C26.9846 1117.39 34.5946 1125 43.9846 1125C44.5346 1125 44.9846 1124.55 44.9846 1124V1120.5C44.9846 1119.95 44.5346 1119.5 43.9846 1119.5ZM29.0146 1109H30.5146C30.5846 1109.88 30.7346 1110.75 30.9746 1111.59L29.7746 1112.8C29.3646 1111.59 29.1046 1110.32 29.0146 1109ZM42.9846 1122.97C41.6646 1122.88 40.3846 1122.62 39.1846 1122.21L40.3846 1121.01C41.2346 1121.25 42.1046 1121.4 42.9846 1121.46V1122.97Z" fill="white"/>
<path d="M38.4999 1122.5C35.4999 1126 33.7 1133.5 26.5 1131.5C17.5 1129 9.5809 1096.93 13 1061.5C17.6316 1013.5 32.5001 991.5 32.5001 939C32.5001 876 -5.7407 777.037 7.50004 707C26.4999 606.5 32.809 497.931 17 453C-21 345 21.2356 195 26.5 146C34.9337 67.5 17.5001 -33.2331 9.00002 -78" stroke="white" stroke-width="2"/>
</svg>
